<svg width="13" height="12" viewBox="0 0 13 12" fill="none" xmlns="http://www.w3.org/2000/svg">
<path d="M1.05298 10.0563C0.76009 10.3492 0.76009 10.824 1.05298 11.1169C1.34588 11.4098 1.82075 11.4098 2.11364 11.1169L6.69698 6.53359C6.98987 6.2407 6.98987 5.76582 6.69698 5.47293L2.11364 0.889592C1.82075 0.596699 1.34588 0.596699 1.05298 0.889592C0.76009 1.18249 0.76009 1.65736 1.05298 1.95025L5.10599 6.00326L1.05298 10.0563Z" fill="#fff"/>
<path d="M6.88632 10.0563C6.59342 10.3492 6.59342 10.824 6.88632 11.1169C7.17921 11.4098 7.65408 11.4098 7.94698 11.1169L12.5303 6.53359C12.8232 6.2407 12.8232 5.76582 12.5303 5.47293L7.94698 0.889592C7.65408 0.596699 7.17921 0.596699 6.88632 0.889592C6.59342 1.18249 6.59342 1.65736 6.88632 1.95025L10.9393 6.00326L6.88632 10.0563Z" fill="#fff"/>
</svg>
