<svg width="13" height="12" viewBox="0 0 13 12" fill="none" xmlns="http://www.w3.org/2000/svg">
<path fill-rule="evenodd" clip-rule="evenodd" d="M6.11366 0.889591C6.40656 1.18248 6.40656 1.65736 6.11366 1.95025L2.06066 6.00326L6.11366 10.0563C6.40656 10.3492 6.40656 10.824 6.11366 11.1169C5.82077 11.4098 5.3459 11.4098 5.053 11.1169L0.46967 6.53359C0.176777 6.2407 0.176777 5.76582 0.46967 5.47293L5.053 0.889592C5.3459 0.596699 5.82077 0.596698 6.11366 0.889591ZM11.947 0.889591C12.2399 1.18248 12.2399 1.65736 11.947 1.95025L7.89399 6.00326L11.947 10.0563C12.2399 10.3492 12.2399 10.824 11.947 11.1169C11.6541 11.4098 11.1792 11.4098 10.8863 11.1169L6.303 6.53359C6.01011 6.2407 6.01011 5.76582 6.303 5.47293L10.8863 0.889592C11.1792 0.596699 11.6541 0.596698 11.947 0.889591Z" fill="#fff"/>
</svg>
